# xmcd
#
# Track frame offsets: 
#        150
#        14552
#        29457
#        42435
#        56057
#        68917
#        80895
#        92167
#        105352
#        120400
#        135012
#        149282
#        164670
#        178665
#        194375
#        209010
#        223262
#        238062
#        252665
#        266465
#        280922
#        291287
#        301122
#
# Disc length: 4251 seconds
#
# Revision: 0
# Processed by: cddbd v1.5.1PL0 Copyright (c) Steve Scherf et al.
# Submitted via: ExactAudioCopy v0.95a5
#
DISCID=65109917
DTITLE=Speckled Red - Complete Recorded Works 1929-1938
DYEAR=1900
DGENRE=
TTITLE0=House Dance Blues
TTITLE1=The Dirty Dozen
TTITLE2=Wilkins Street Stomp
TTITLE3=The Dirty Dozen -- No. 2
TTITLE4=We Got to Get That Fixed
TTITLE5=Speckled Red's Blues
TTITLE6=The Right String -- But the Wrong Yo Yo
TTITLE7=Lonesome Mind Blues
TTITLE8=Welfare Blues
TTITLE9=Down on the Levee
TTITLE10=Do the Georgia
TTITLE11=Early in the Morning
TTITLE12=Take It Easy
TTITLE13=Try Me One More Time
TTITLE14=Louise Baltimore Blues
TTITLE15=What Makes You Treat Me So Mean?
TTITLE16=St. Louis Stomp
TTITLE17=You Got to Fix It
TTITLE18=They're Mean to Me
TTITLE19=So Unkind
TTITLE20=Dad's Piece
TTITLE21=Oh Red
TTITLE22=Early in the Morning
EXTD=
EXTT0=
EXTT1=
EXTT2=
EXTT3=
EXTT4=
EXTT5=
EXTT6=
EXTT7=
EXTT8=
EXTT9=
EXTT10=
EXTT11=
EXTT12=
EXTT13=
EXTT14=
EXTT15=
EXTT16=
EXTT17=
EXTT18=
EXTT19=
EXTT20=
EXTT21=
EXTT22=
PLAYORDER=
